<svg viewBox="0 0 176 422" fill="none" xmlns="http://www.w3.org/2000/svg">
    <path d="M75.3817 411.368C14.8545 360.833 -58.7519 111.276 75.6983 117.077C86.6362 77.8369 109.239 40.9373 141.356 15.5212C150.53 10.3971 165.615 -8.18687 175.061 4.15697C176.979 7.96942 175.471 13.195 171.461 15.01C131.34 36.6365 103.832 77.5411 91.4863 120.634C138.32 134.513 191.67 206.875 138.277 243.319C117.708 253.024 92.9883 238.073 79.9364 222.085C61.6626 196.441 67.5281 162.187 71.8865 133.005C-22.6759 133.061 25.9283 298.313 51.0866 348.553C59.7696 366.269 69.8708 384.458 84.4045 397.948C93.1453 403.606 84.0052 417.322 75.3817 411.368ZM124.088 230.403C137.54 230.351 144.267 214.546 144.341 202.865C142.051 171.644 115.174 147.697 87.6975 136.41C80.7323 171.832 77.5038 223.853 124.088 230.403Z"
          fill="currentColor"/>
    <path d="M71.317 421.569C59.7518 417.918 46.8777 415.981 36.698 409.113C26.9376 401.209 41.4852 386.796 48.6727 397.545C57.2047 400.98 66.1851 403.609 75.1137 405.778C84.3521 397.237 82.1233 344.101 102.198 364.349C104.346 373.165 98.4839 382.46 97.436 391.368C94.4702 404.57 88.8698 425.263 71.317 421.569Z"
          fill="currentColor"/>
</svg>
